<svg xmlns="http://www.w3.org/2000/svg" width="71.66" fill="#9d894a" height="49.34" viewBox="0 0 71.66 49.34" preserveAspectRatio="none" class="reason-kazari02"> 
<path class="cls-1" d="M2958.8,7220.79a4.874,4.874,0,0,1-6.76.49,3.408,3.408,0,0,1-.4-5.3,2.258,2.258,0,0,1,2.71-.71,2.7,2.7,0,0,0-2.26,1.08c-0.89.92-1.06,2.59,0.74,4.1a3.9,3.9,0,0,0,5.51-.04,5.169,5.169,0,0,0-.54-7.89,8.014,8.014,0,0,0-4.85-1.86,5.369,5.369,0,0,0-1.21-.35,8.738,8.738,0,0,1,6.32,1.93A5.938,5.938,0,0,1,2958.8,7220.79Zm26.75-40.25a9.816,9.816,0,0,1,3.38,6.38,11.616,11.616,0,0,1-3.4,8.97c-2.84,2.89-7.86,3.15-11.66,3.48-8.82.75-18.03,1.57-26.6,3.78-4.79,1.23-10.46,4.02-13.62,8.02-3.83,4.84-3.28,10.6,1.34,14a8,8,0,0,0,10.78-.95,7.179,7.179,0,0,0,.36-8.31,10.881,10.881,0,0,0-1.7-1.97,8.71,8.71,0,0,1,2.04,1.73,5.149,5.149,0,0,1,1.2,2.06,6.96,6.96,0,0,1-.04,4.51,8.487,8.487,0,0,1-1.28,2.39,8.692,8.692,0,0,1-11.73,1.04,9.423,9.423,0,0,1-3.99-6.02,12.294,12.294,0,0,1,3.22-10.43c2.51-2.93,6.13-4.8,9.68-6.18,6.88-2.67,14.48-3.45,21.77-4.36,3.33-.42,6.08-0.35,9.43-0.65,4.36-.4,7.87-0.43,10.34-2.98,4.3-4.43,4.33-10.2.07-14.05a8.012,8.012,0,0,0-10.84-.14,7.185,7.185,0,0,0-1.19,8.22,10.958,10.958,0,0,0,1.5,2.13,8.687,8.687,0,0,1-1.86-1.92,5.048,5.048,0,0,1-.98-2.18,6.879,6.879,0,0,1,.48-4.47,8.338,8.338,0,0,1,1.52-2.25A8.7,8.7,0,0,1,2985.55,7180.54Zm-7.4,12.55c1.65,5.95-1.55,11.99-6.83,15.03-6.19,3.57-13.27,3.35-21.03,2.39s-16.21-2.54-24.26,2.1c-2.7,1.56-5.58,3.76-7.17,6.54-1.93,3.33.62,8.33,4.6,7.1a2.951,2.951,0,0,0,2.17-3.57,3.428,3.428,0,0,0-1.86-2.13,2.944,2.944,0,0,1,2.42,1.96,3.627,3.627,0,0,1-2.36,4.72c-2.74.97-5.16-.86-6.05-3.14-2.15-5.53,3.86-9.75,7.68-11.96a32.553,32.553,0,0,1,17.09-4.3,86.058,86.058,0,0,1,8.76.77c7.76,0.97,13.66,2.69,19.85-.89,5.41-3.11,7.76-9.98,6.51-16.04A11.826,11.826,0,0,1,2978.15,7193.09Z" transform="translate(-2917.31 -7178.16)"></path> 
</svg>