<svg width="1080" height="1080" viewBox="0 0 1080 1080" fill="none" xmlns="http://www.w3.org/2000/svg">
<path fill-rule="evenodd" clip-rule="evenodd" d="M376.1 607.872C376.1 471.868 338.58 428.39 221.24 428.39C338.58 428.39 376.1 384.914 376.1 248.91C376.1 384.914 413.6 428.39 530.94 428.39C413.6 428.39 376.1 471.868 376.1 607.872Z" stroke="#9d894a" stroke-width="20" stroke-miterlimit="2" stroke-linecap="round" stroke-linejoin="round"/>
<path d="M376.102 117V176.402" stroke="#9d894a" stroke-width="20" stroke-miterlimit="2" stroke-linecap="round" stroke-linejoin="round"/>
<path d="M376.102 680.38V739.78" stroke="#9d894a" stroke-width="20" stroke-miterlimit="2" stroke-linecap="round" stroke-linejoin="round"/>
<path d="M81 428.39H140.4" stroke="#9d894a" stroke-width="20" stroke-miterlimit="2" stroke-linecap="round" stroke-linejoin="round"/>
<path d="M611.801 428.39H671.201" stroke="#9d894a" stroke-width="20" stroke-miterlimit="2" stroke-linecap="round" stroke-linejoin="round"/>
<path fill-rule="evenodd" clip-rule="evenodd" d="M802.462 875.576C802.462 785.204 777.542 756.314 699.582 756.314C777.542 756.314 802.462 727.426 802.462 637.054C802.462 727.426 827.382 756.314 905.362 756.314C827.382 756.314 802.462 785.204 802.462 875.576Z" stroke="#9d894a" stroke-width="20" stroke-miterlimit="2" stroke-linecap="round" stroke-linejoin="round"/>
<path d="M802.461 549.404V588.874" stroke="#9d894a" stroke-width="20" stroke-miterlimit="2" stroke-linecap="round" stroke-linejoin="round"/>
<path d="M802.461 923.756V963.226" stroke="#9d894a" stroke-width="20" stroke-miterlimit="2" stroke-linecap="round" stroke-linejoin="round"/>
<path d="M606.379 756.314H645.839" stroke="#9d894a" stroke-width="20" stroke-miterlimit="2" stroke-linecap="round" stroke-linejoin="round"/>
<path d="M959.082 756.314H998.562" stroke="#9d894a" stroke-width="20" stroke-miterlimit="2" stroke-linecap="round" stroke-linejoin="round"/>
</svg>
