<svg xmlns="http://www.w3.org/2000/svg" xmlns:xlink="http://www.w3.org/1999/xlink"><defs>
<clipPath id="clip0_506_655">
<rect width="20" height="20" fill="white"/>
</clipPath>
</defs><symbol id="arrow_right" viewBox="0 0 24 24">
<rect width="24" height="24"/>
<path d="M6 12H18M18 12L13 7M18 12L13 17" stroke-linecap="round" stroke-linejoin="round"/>
</symbol><symbol id="instagram" viewBox="0 0 20 20">
<g clip-path="url(#clip0_506_655)">
<path fill-rule="evenodd" clip-rule="evenodd" d="M8.11701 6.26551C8.89493 5.86187 9.78031 5.71379 10.6472 5.84235C11.5315 5.97348 12.3502 6.38554 12.9823 7.01767C13.6145 7.64979 14.0265 8.46847 14.1577 9.35276C14.2862 10.2197 14.1381 11.1051 13.7345 11.883C13.3308 12.6609 12.6922 13.2917 11.9093 13.6858C11.1265 14.0798 10.2394 14.2169 9.3741 14.0777C8.50882 13.9385 7.70949 13.5299 7.08978 12.9102C6.47007 12.2905 6.06154 11.4912 5.92231 10.6259C5.78307 9.76063 5.92022 8.87349 6.31424 8.09065C6.70826 7.30782 7.3391 6.66916 8.11701 6.26551ZM10.4028 7.49098C9.88261 7.41385 9.35138 7.5027 8.88463 7.74489C8.41788 7.98707 8.03938 8.37027 7.80297 8.83997C7.56655 9.30967 7.48427 9.84196 7.5678 10.3611C7.65135 10.8803 7.89646 11.3599 8.26829 11.7317C8.64011 12.1035 9.11972 12.3487 9.63888 12.4322C10.158 12.5157 10.6903 12.4334 11.16 12.197C11.6297 11.9606 12.0129 11.5821 12.2551 11.1154C12.4973 10.6486 12.5861 10.1174 12.509 9.59723C12.4303 9.06666 12.1831 8.57545 11.8038 8.19618C11.4245 7.8169 10.9333 7.56966 10.4028 7.49098Z"/>
<path d="M14.5834 4.58334C14.1231 4.58334 13.75 4.95643 13.75 5.41667C13.75 5.87691 14.1231 6.25 14.5834 6.25H14.5917C15.0519 6.25 15.425 5.87691 15.425 5.41667C15.425 4.95643 15.0519 4.58334 14.5917 4.58334H14.5834Z"/>
<path fill-rule="evenodd" clip-rule="evenodd" d="M0.833374 5.83334C0.833374 3.07191 3.07195 0.833336 5.83337 0.833336H14.1667C16.9281 0.833336 19.1667 3.07191 19.1667 5.83334V14.1667C19.1667 16.9281 16.9281 19.1667 14.1667 19.1667H5.83337C3.07195 19.1667 0.833374 16.9281 0.833374 14.1667V5.83334ZM5.83337 2.5C3.99242 2.5 2.50004 3.99239 2.50004 5.83334V14.1667C2.50004 16.0076 3.99242 17.5 5.83337 17.5H14.1667C16.0077 17.5 17.5 16.0076 17.5 14.1667V5.83334C17.5 3.99239 16.0077 2.5 14.1667 2.5H5.83337Z"/>
</g>

</symbol><symbol id="spa" viewBox="0 0 33.363 33.363">
<g>
	<g>
		<path d="M10.133,21.695c-2.199,0.002-4.467,1.26-4.047,2.068c0.478,0.924,4.106,0.301,5.385,0.65
			c1.816,0.496,3.761,1.58,4.558,2.664C15.007,23.891,12.588,21.695,10.133,21.695z"/>
		<path d="M13.458,20.939c-0.554-2.465-5.917-5.229-6.399-5.508c-2.285-1.319-3.872-2.85-3.872-2.85s2.118,0.609,4.401,1.931
			c0.483,0.278,0.927,0.567,1.341,0.85c-0.361-1.047-1.269-3.103-3.105-4.161C3.304,9.745,0,10.743,0,10.743
			s0.788,3.361,3.308,4.816C5.143,16.619,11.375,17.73,13.458,20.939z"/>
		<path d="M8.757,18.391c-0.275,0.188-0.571,0.379-0.893,0.566c-1.525,0.879-2.939,1.287-2.939,1.287s1.06-1.021,2.584-1.902
			c0.323-0.186,0.639-0.346,0.939-0.49c-0.727-0.141-2.218-0.301-3.442,0.406c-1.684,0.971-2.208,3.213-2.208,3.213
			s2.204,0.668,3.888-0.303C7.91,20.459,8.516,19.088,8.757,18.391z"/>
		<path d="M23.229,21.695c-2.455,0-4.873,2.195-5.896,5.383c0.798-1.082,2.741-2.166,4.558-2.662
			c1.278-0.352,4.908,0.271,5.386-0.65C27.696,22.953,25.428,21.697,23.229,21.695z"/>
		<path d="M27.538,11.201c-1.837,1.06-2.744,3.114-3.104,4.161c0.414-0.281,0.856-0.57,1.34-0.85
			c2.283-1.32,4.402-1.931,4.402-1.931s-1.588,1.529-3.873,2.85c-0.481,0.277-5.846,3.043-6.398,5.508
			c2.083-3.209,8.314-4.32,10.15-5.38c2.521-1.455,3.309-4.816,3.309-4.816S30.059,9.745,27.538,11.201z"/>
		<path d="M28.355,18.258c-1.225-0.707-2.715-0.547-3.441-0.406c0.301,0.146,0.616,0.307,0.939,0.49
			c1.523,0.881,2.584,1.902,2.584,1.902s-1.414-0.408-2.939-1.287c-0.32-0.188-0.617-0.379-0.893-0.566
			c0.24,0.697,0.847,2.068,2.07,2.777c1.685,0.971,3.889,0.303,3.889,0.303S30.039,19.229,28.355,18.258z"/>
		<path d="M27.926,7.771c-5.564-1.019-11.244,5.679-11.244,5.679S9.822,7.226,5.437,7.771c8.426,4.424,11.245,20.747,11.245,20.747
			S17.51,13.851,27.926,7.771z"/>
		<circle cx="16.682" cy="7.666" r="2.82"/>
	</g>
</g>
</symbol></svg>