<svg xmlns="http://www.w3.org/2000/svg" xmlns:xlink="http://www.w3.org/1999/xlink"><defs>
<clipPath id="clip0_506_655">
<rect width="20" height="20" fill="white"/>
</clipPath>
</defs><symbol id="arrow_right" viewBox="0 0 24 24">
<rect width="24" height="24"/>
<path d="M6 12H18M18 12L13 7M18 12L13 17" stroke-linecap="round" stroke-linejoin="round"/>
</symbol><symbol id="instagram" viewBox="0 0 20 20">
<g clip-path="url(#clip0_506_655)">
<path fill-rule="evenodd" clip-rule="evenodd" d="M8.11701 6.26551C8.89493 5.86187 9.78031 5.71379 10.6472 5.84235C11.5315 5.97348 12.3502 6.38554 12.9823 7.01767C13.6145 7.64979 14.0265 8.46847 14.1577 9.35276C14.2862 10.2197 14.1381 11.1051 13.7345 11.883C13.3308 12.6609 12.6922 13.2917 11.9093 13.6858C11.1265 14.0798 10.2394 14.2169 9.3741 14.0777C8.50882 13.9385 7.70949 13.5299 7.08978 12.9102C6.47007 12.2905 6.06154 11.4912 5.92231 10.6259C5.78307 9.76063 5.92022 8.87349 6.31424 8.09065C6.70826 7.30782 7.3391 6.66916 8.11701 6.26551ZM10.4028 7.49098C9.88261 7.41385 9.35138 7.5027 8.88463 7.74489C8.41788 7.98707 8.03938 8.37027 7.80297 8.83997C7.56655 9.30967 7.48427 9.84196 7.5678 10.3611C7.65135 10.8803 7.89646 11.3599 8.26829 11.7317C8.64011 12.1035 9.11972 12.3487 9.63888 12.4322C10.158 12.5157 10.6903 12.4334 11.16 12.197C11.6297 11.9606 12.0129 11.5821 12.2551 11.1154C12.4973 10.6486 12.5861 10.1174 12.509 9.59723C12.4303 9.06666 12.1831 8.57545 11.8038 8.19618C11.4245 7.8169 10.9333 7.56966 10.4028 7.49098Z"/>
<path d="M14.5834 4.58334C14.1231 4.58334 13.75 4.95643 13.75 5.41667C13.75 5.87691 14.1231 6.25 14.5834 6.25H14.5917C15.0519 6.25 15.425 5.87691 15.425 5.41667C15.425 4.95643 15.0519 4.58334 14.5917 4.58334H14.5834Z"/>
<path fill-rule="evenodd" clip-rule="evenodd" d="M0.833374 5.83334C0.833374 3.07191 3.07195 0.833336 5.83337 0.833336H14.1667C16.9281 0.833336 19.1667 3.07191 19.1667 5.83334V14.1667C19.1667 16.9281 16.9281 19.1667 14.1667 19.1667H5.83337C3.07195 19.1667 0.833374 16.9281 0.833374 14.1667V5.83334ZM5.83337 2.5C3.99242 2.5 2.50004 3.99239 2.50004 5.83334V14.1667C2.50004 16.0076 3.99242 17.5 5.83337 17.5H14.1667C16.0077 17.5 17.5 16.0076 17.5 14.1667V5.83334C17.5 3.99239 16.0077 2.5 14.1667 2.5H5.83337Z"/>
</g>

</symbol><symbol id="laptop" viewBox="0 0 24 24">
<path d="M19 16.5H5M19 16.5C19.5523 16.5 20 16.0523 20 15.5V6.5C20 5.94772 19.5523 5.5 19 5.5H5C4.44772 5.5 4 5.94771 4 6.5V15.5C4 16.0523 4.44772 16.5 5 16.5M19 16.5H20.25C20.9404 16.5 21.5 17.0596 21.5 17.75C21.5 18.4404 20.9404 19 20.25 19H3.75C3.05964 19 2.5 18.4404 2.5 17.75C2.5 17.0596 3.05964 16.5 3.75 16.5H5" stroke-width="1.5" stroke-linecap="round" stroke-linejoin="round"/>
</symbol><symbol id="line" viewBox="0 0 24 24">
<path d="M8 12H8.01M12 12H12.01M16 12H16.01M21.0039 12C21.0039 16.9706 16.9745 21 12.0039 21C9.9675 21 3.00463 21 3.00463 21C3.00463 21 4.56382 17.2561 3.93982 16.0008C3.34076 14.7956 3.00391 13.4372 3.00391 12C3.00391 7.02944 7.03334 3 12.0039 3C16.9745 3 21.0039 7.02944 21.0039 12Z" stroke-width="2" stroke-linecap="round" stroke-linejoin="round"/>
</symbol><symbol id="phone" viewBox="0 0 24 24">
<path d="M15.1008 15.0272L15.6446 15.5437V15.5437L15.1008 15.0272ZM15.5562 14.5477L15.0124 14.0312V14.0312L15.5562 14.5477ZM17.9729 14.2123L17.5987 14.8623H17.5987L17.9729 14.2123ZM19.8834 15.312L19.5092 15.962L19.8834 15.312ZM20.4217 18.7584L20.9655 19.275L20.9655 19.2749L20.4217 18.7584ZM19.0012 20.254L18.4574 19.7375L19.0012 20.254ZM17.6763 20.9631L17.75 21.7095L17.6763 20.9631ZM7.8154 16.4752L8.3592 15.9587L7.8154 16.4752ZM3.75185 6.92574C3.72965 6.51212 3.37635 6.19481 2.96273 6.21701C2.54911 6.23921 2.23181 6.59252 2.25401 7.00613L3.75185 6.92574ZM9.19075 8.80507L9.73454 9.32159L9.19075 8.80507ZM9.47756 8.50311L10.0214 9.01963L9.47756 8.50311ZM9.63428 5.6931L10.2467 5.26012L9.63428 5.6931ZM8.3733 3.90961L7.7609 4.3426V4.3426L8.3733 3.90961ZM4.7177 3.09213C4.43244 3.39246 4.44465 3.86717 4.74498 4.15244C5.04531 4.4377 5.52002 4.42549 5.80529 4.12516L4.7177 3.09213ZM11.0632 13.0559L11.607 12.5394L11.0632 13.0559ZM10.6641 19.8123C11.0148 20.0327 11.4778 19.9271 11.6982 19.5764C11.9186 19.2257 11.8129 18.7627 11.4622 18.5423L10.6641 19.8123ZM15.113 20.0584C14.7076 19.9735 14.3101 20.2334 14.2252 20.6388C14.1403 21.0442 14.4001 21.4417 14.8056 21.5266L15.113 20.0584ZM15.6446 15.5437L16.1 15.0642L15.0124 14.0312L14.557 14.5107L15.6446 15.5437ZM17.5987 14.8623L19.5092 15.962L20.2575 14.662L18.347 13.5623L17.5987 14.8623ZM19.8779 18.2419L18.4574 19.7375L19.545 20.7705L20.9655 19.275L19.8779 18.2419ZM8.3592 15.9587C4.48307 11.8778 3.83289 8.43556 3.75185 6.92574L2.25401 7.00613C2.35326 8.85536 3.13844 12.6403 7.27161 16.9917L8.3592 15.9587ZM9.73454 9.32159L10.0214 9.01963L8.93377 7.9866L8.64695 8.28856L9.73454 9.32159ZM10.2467 5.26012L8.98569 3.47663L7.7609 4.3426L9.02189 6.12608L10.2467 5.26012ZM9.19075 8.80507C8.64695 8.28856 8.64626 8.28929 8.64556 8.29002C8.64533 8.29028 8.64463 8.29102 8.64415 8.29152C8.6432 8.29254 8.64223 8.29357 8.64125 8.29463C8.63928 8.29675 8.63724 8.29896 8.63515 8.30127C8.63095 8.30588 8.6265 8.31087 8.62182 8.31625C8.61247 8.32701 8.60219 8.33931 8.5912 8.3532C8.56922 8.38098 8.54435 8.41511 8.51826 8.45588C8.46595 8.53764 8.40921 8.64531 8.36117 8.78033C8.26346 9.0549 8.21022 9.4185 8.27675 9.87257C8.40746 10.7647 8.99202 11.9644 10.5194 13.5724L11.607 12.5394C10.1793 11.0363 9.82765 10.1106 9.7609 9.65511C9.72871 9.43536 9.76142 9.31957 9.77436 9.28321C9.78163 9.26277 9.78639 9.25709 9.78174 9.26437C9.77948 9.26789 9.77498 9.27451 9.76742 9.28407C9.76363 9.28885 9.75908 9.29437 9.75364 9.30063C9.75092 9.30375 9.74798 9.30706 9.7448 9.31056C9.74321 9.31231 9.74156 9.3141 9.73985 9.31594C9.739 9.31686 9.73813 9.31779 9.73724 9.31873C9.7368 9.3192 9.73612 9.31992 9.7359 9.32015C9.73522 9.32087 9.73454 9.32159 9.19075 8.80507ZM10.5194 13.5724C12.0422 15.1757 13.1924 15.806 14.0699 15.9485C14.5201 16.0216 14.8846 15.9632 15.1606 15.8544C15.2955 15.8012 15.4023 15.7387 15.4824 15.6819C15.5223 15.6535 15.5556 15.6266 15.5825 15.6031C15.5959 15.5913 15.6078 15.5803 15.6181 15.5703C15.6233 15.5654 15.628 15.5606 15.6324 15.5562C15.6346 15.554 15.6368 15.5518 15.6388 15.5497C15.6398 15.5487 15.6408 15.5477 15.6417 15.5467C15.6422 15.5462 15.6429 15.5454 15.6432 15.5452C15.6439 15.5444 15.6446 15.5437 15.1008 15.0272C14.557 14.5107 14.5577 14.51 14.5583 14.5093C14.5586 14.509 14.5592 14.5083 14.5597 14.5078C14.5606 14.5069 14.5615 14.506 14.5623 14.5051C14.5641 14.5033 14.5658 14.5015 14.5675 14.4998C14.5708 14.4965 14.574 14.4933 14.577 14.4904C14.5831 14.4846 14.5885 14.4796 14.5933 14.4754C14.6029 14.467 14.61 14.4616 14.6146 14.4584C14.6239 14.4517 14.623 14.454 14.6102 14.459C14.5909 14.4666 14.5001 14.4987 14.3103 14.4679C13.9078 14.4025 13.0391 14.0472 11.607 12.5394L10.5194 13.5724ZM8.98569 3.47663C7.9721 2.04305 5.94388 1.80119 4.7177 3.09213L5.80529 4.12516C6.32812 3.57471 7.24855 3.61795 7.7609 4.3426L8.98569 3.47663ZM18.4574 19.7375C18.1783 20.0313 17.8864 20.1887 17.6026 20.2167L17.75 21.7095C18.497 21.6357 19.1016 21.2373 19.545 20.7705L18.4574 19.7375ZM10.0214 9.01963C10.9889 8.00095 11.0574 6.40678 10.2467 5.26012L9.02189 6.12608C9.44404 6.72315 9.3793 7.51753 8.93377 7.9866L10.0214 9.01963ZM19.5092 15.962C20.3301 16.4345 20.4907 17.5968 19.8779 18.2419L20.9655 19.2749C22.2705 17.901 21.8904 15.6019 20.2575 14.662L19.5092 15.962ZM16.1 15.0642C16.4854 14.6584 17.086 14.5672 17.5987 14.8623L18.347 13.5623C17.2485 12.93 15.8862 13.1113 15.0124 14.0312L16.1 15.0642ZM11.4622 18.5423C10.4785 17.9241 9.43149 17.0876 8.3592 15.9587L7.27161 16.9917C8.42564 18.2067 9.56897 19.1241 10.6641 19.8123L11.4622 18.5423ZM17.6026 20.2167C17.0561 20.2707 16.1912 20.2842 15.113 20.0584L14.8056 21.5266C16.0541 21.788 17.0742 21.7762 17.75 21.7095L17.6026 20.2167Z"/>
</symbol><symbol id="spa" viewBox="0 0 33.363 33.363">
<g>
	<g>
		<path d="M10.133,21.695c-2.199,0.002-4.467,1.26-4.047,2.068c0.478,0.924,4.106,0.301,5.385,0.65
			c1.816,0.496,3.761,1.58,4.558,2.664C15.007,23.891,12.588,21.695,10.133,21.695z"/>
		<path d="M13.458,20.939c-0.554-2.465-5.917-5.229-6.399-5.508c-2.285-1.319-3.872-2.85-3.872-2.85s2.118,0.609,4.401,1.931
			c0.483,0.278,0.927,0.567,1.341,0.85c-0.361-1.047-1.269-3.103-3.105-4.161C3.304,9.745,0,10.743,0,10.743
			s0.788,3.361,3.308,4.816C5.143,16.619,11.375,17.73,13.458,20.939z"/>
		<path d="M8.757,18.391c-0.275,0.188-0.571,0.379-0.893,0.566c-1.525,0.879-2.939,1.287-2.939,1.287s1.06-1.021,2.584-1.902
			c0.323-0.186,0.639-0.346,0.939-0.49c-0.727-0.141-2.218-0.301-3.442,0.406c-1.684,0.971-2.208,3.213-2.208,3.213
			s2.204,0.668,3.888-0.303C7.91,20.459,8.516,19.088,8.757,18.391z"/>
		<path d="M23.229,21.695c-2.455,0-4.873,2.195-5.896,5.383c0.798-1.082,2.741-2.166,4.558-2.662
			c1.278-0.352,4.908,0.271,5.386-0.65C27.696,22.953,25.428,21.697,23.229,21.695z"/>
		<path d="M27.538,11.201c-1.837,1.06-2.744,3.114-3.104,4.161c0.414-0.281,0.856-0.57,1.34-0.85
			c2.283-1.32,4.402-1.931,4.402-1.931s-1.588,1.529-3.873,2.85c-0.481,0.277-5.846,3.043-6.398,5.508
			c2.083-3.209,8.314-4.32,10.15-5.38c2.521-1.455,3.309-4.816,3.309-4.816S30.059,9.745,27.538,11.201z"/>
		<path d="M28.355,18.258c-1.225-0.707-2.715-0.547-3.441-0.406c0.301,0.146,0.616,0.307,0.939,0.49
			c1.523,0.881,2.584,1.902,2.584,1.902s-1.414-0.408-2.939-1.287c-0.32-0.188-0.617-0.379-0.893-0.566
			c0.24,0.697,0.847,2.068,2.07,2.777c1.685,0.971,3.889,0.303,3.889,0.303S30.039,19.229,28.355,18.258z"/>
		<path d="M27.926,7.771c-5.564-1.019-11.244,5.679-11.244,5.679S9.822,7.226,5.437,7.771c8.426,4.424,11.245,20.747,11.245,20.747
			S17.51,13.851,27.926,7.771z"/>
		<circle cx="16.682" cy="7.666" r="2.82"/>
	</g>
</g>
</symbol></svg>